<svg width="850" height="1000" viewBox="0 0 850 1000" fill="none" xmlns="http://www.w3.org/2000/svg">
<rect width="849.334" height="990.189" fill="#587632"/>
<rect width="849.334" height="71.4786" fill="#407617"/>
<rect y="71.4785" width="849.334" height="71.4786" fill="#316414"/>
<rect y="142.957" width="849.334" height="71.4786" fill="#407617"/>
<rect y="214.436" width="849.334" height="71.4786" fill="#316414"/>
<rect y="285.914" width="849.334" height="71.4786" fill="#407617"/>
<rect y="357.395" width="849.334" height="71.4786" fill="#316414"/>
<rect y="428.873" width="849.334" height="71.4786" fill="#407617"/>
<rect y="499.648" width="849.334" height="71.4786" fill="#316414"/>
<rect y="571.127" width="849.334" height="71.4786" fill="#407617"/>
<rect y="642.605" width="849.334" height="71.4786" fill="#316414"/>
<rect y="714.086" width="849.334" height="71.4786" fill="#407617"/>
<rect y="785.564" width="849.334" height="71.4786" fill="#316414"/>
<rect y="857.043" width="849.334" height="71.4786" fill="#407617"/>
<rect y="928.521" width="849.334" height="71.4786" fill="#316414"/>
<rect x="63.7699" y="74.2816" width="721.794" height="842.327" stroke="white" stroke-width="5.60617"/>
<rect x="63.7699" y="499.649" width="718.991" height="416.959" stroke="white" stroke-width="5.60617"/>
<rect x="226.348" y="74.2816" width="396.636" height="141.556" stroke="white" stroke-width="5.60617"/>
<rect x="313.244" y="74.2816" width="223.546" height="72.1794" stroke="white" stroke-width="5.60617"/>
<rect x="352.489" y="31.5345" width="145.06" height="42.747" stroke="white" stroke-width="5.60617"/>
<rect x="2.80308" y="-2.80308" width="396.636" height="141.556" transform="matrix(1 0 0 -1 223.545 913.806)" stroke="white" stroke-width="5.60617"/>
<rect x="2.80308" y="-2.80308" width="223.546" height="72.1794" transform="matrix(1 0 0 -1 310.441 913.806)" stroke="white" stroke-width="5.60617"/>
<rect x="2.80308" y="-2.80308" width="145.06" height="42.747" transform="matrix(1 0 0 -1 349.686 956.552)" stroke="white" stroke-width="5.60617"/>
<circle cx="425.018" cy="499.999" r="106.868" stroke="white" stroke-width="5.60617"/>
<path d="M486.451 216.538C472.454 235.26 450.118 247.372 424.954 247.372C399.79 247.372 377.455 235.26 363.458 216.538H486.451Z" stroke="white" stroke-width="5.60617"/>
<path d="M486.451 775.053C472.454 756.331 450.118 744.219 424.954 744.219C399.79 744.219 377.455 756.331 363.458 775.053H486.451Z" stroke="white" stroke-width="5.60617"/>
<circle cx="424.668" cy="499.649" r="9.81079" fill="white"/>
<circle cx="426.418" cy="599.51" r="43.0974" fill="#D9D9D9" fill-opacity="0.5"/>
<rect x="424.666" y="583.742" width="4.20463" height="31.5347" fill="white"/>
<rect x="442.186" y="597.057" width="4.20463" height="31.5347" transform="rotate(90 442.186 597.057)" fill="white"/>
<circle cx="141.207" cy="421.515" r="43.0974" fill="#D9D9D9" fill-opacity="0.5"/>
<rect x="139.451" y="405.746" width="4.20463" height="31.5347" fill="white"/>
<rect x="156.971" y="419.061" width="4.20463" height="31.5347" transform="rotate(90 156.971 419.061)" fill="white"/>
<circle cx="711.633" cy="421.515" r="43.0974" fill="#D9D9D9" fill-opacity="0.5"/>
<rect x="709.883" y="405.746" width="4.20463" height="31.5347" fill="white"/>
<rect x="727.4" y="419.061" width="4.20463" height="31.5347" transform="rotate(90 727.4 419.061)" fill="white"/>
<circle cx="421.515" cy="314.297" r="43.0974" fill="#D9D9D9" fill-opacity="0.5"/>
<circle cx="319.201" cy="148.914" r="43.0974" fill="#D9D9D9" fill-opacity="0.5"/>
<circle cx="530.135" cy="144.709" r="43.0974" fill="#D9D9D9" fill-opacity="0.5"/>
<circle cx="141.207" cy="685.703" r="43.0974" fill="#D9D9D9" fill-opacity="0.5"/>
<rect x="139.451" y="669.938" width="4.20463" height="31.5347" fill="white"/>
<rect x="156.971" y="683.252" width="4.20463" height="31.5347" transform="rotate(90 156.971 683.252)" fill="white"/>
<circle cx="710.232" cy="685.703" r="43.0974" fill="#D9D9D9" fill-opacity="0.5"/>
<rect x="708.48" y="669.938" width="4.20463" height="31.5347" fill="white"/>
<rect x="726" y="683.252" width="4.20463" height="31.5347" transform="rotate(90 726 683.252)" fill="white"/>
<circle cx="543.449" cy="685.703" r="43.0974" fill="#D9D9D9" fill-opacity="0.5"/>
<rect x="541.695" y="669.938" width="4.20463" height="31.5347" fill="white"/>
<rect x="559.217" y="683.252" width="4.20463" height="31.5347" transform="rotate(90 559.217 683.252)" fill="white"/>
<circle cx="424.316" cy="849.685" r="43.0974" fill="#D9D9D9" fill-opacity="0.5"/>
<circle cx="306.588" cy="685.703" r="43.0974" fill="#D9D9D9" fill-opacity="0.5"/>
<rect x="304.836" y="669.938" width="4.20463" height="31.5347" fill="white"/>
<rect x="322.355" y="683.252" width="4.20463" height="31.5347" transform="rotate(90 322.355 683.252)" fill="white"/>
<rect x="422.564" y="833.918" width="4.20463" height="31.5347" fill="white"/>
<rect x="440.082" y="847.232" width="4.20463" height="31.5347" transform="rotate(90 440.082 847.232)" fill="white"/>
<rect x="317.449" y="133.146" width="4.20463" height="31.5347" fill="white"/>
<rect x="334.971" y="146.461" width="4.20463" height="31.5347" transform="rotate(90 334.971 146.461)" fill="white"/>
<rect x="420.014" y="298" width="4.20463" height="31.5347" fill="white"/>
<rect x="437.533" y="311.314" width="4.20463" height="31.5347" transform="rotate(90 437.533 311.314)" fill="white"/>
<rect x="528.381" y="128.942" width="4.20463" height="31.5347" fill="white"/>
<rect x="545.9" y="142.257" width="4.20463" height="31.5347" transform="rotate(90 545.9 142.257)" fill="white"/>
</svg>
