<svg width="45" height="44" viewBox="0 0 45 44" fill="none" xmlns="http://www.w3.org/2000/svg">
<path d="M20.2695 2.83301C21.2076 1.05529 23.7534 1.05529 24.6914 2.83301L28.7939 10.6084C29.5897 12.1167 31.0403 13.1711 32.7207 13.4619L41.3838 14.9609C43.3645 15.3037 44.151 17.7255 42.75 19.167L36.623 25.4707C35.4345 26.6936 34.8804 28.399 35.123 30.0869L36.375 38.7891C36.6611 40.7787 34.6007 42.2756 32.7969 41.3887L24.9072 37.5098C23.3768 36.7573 21.5841 36.7573 20.0537 37.5098L12.1641 41.3887C10.3602 42.2756 8.2998 40.7787 8.58594 38.7891L9.83789 30.0869C10.0805 28.399 9.5264 26.6936 8.33789 25.4707L2.21094 19.167C0.809948 17.7255 1.59644 15.3037 3.57715 14.9609L12.2402 13.4619C13.9206 13.1711 15.3712 12.1167 16.167 10.6084L20.2695 2.83301Z" fill="white"/>
</svg>